<mxfile host="Electron" modified="2023-05-03T04:44:59.275Z" agent="Mozilla/5.0 (Windows NT 10.0; Win64; x64) AppleWebKit/537.36 (KHTML, like Gecko) draw.io/21.1.2 Chrome/106.0.5249.199 Electron/21.4.3 Safari/537.36" etag="hNYK_17VDRmCkXUC5U4g" version="21.1.2" type="device">
  <diagram name="Page-1" id="uDznLPqwp001HBLIKC0Q">
    <mxGraphModel dx="827" dy="399" grid="1" gridSize="10" guides="1" tooltips="1" connect="1" arrows="1" fold="1" page="1" pageScale="1" pageWidth="850" pageHeight="1100" math="0" shadow="0">
      <root>
        <mxCell id="0" />
        <mxCell id="1" parent="0" />
        <mxCell id="j_tpUfQhMSZQ1jyRV7th-2" value="state transition diagram" style="swimlane;whiteSpace=wrap;html=1;startSize=23;" vertex="1" parent="1">
          <mxGeometry x="230" y="60" width="380" height="560" as="geometry" />
        </mxCell>
        <mxCell id="j_tpUfQhMSZQ1jyRV7th-4" value="user" style="text;html=1;align=center;verticalAlign=middle;resizable=0;points=[];autosize=1;strokeColor=none;fillColor=none;" vertex="1" parent="j_tpUfQhMSZQ1jyRV7th-2">
          <mxGeometry x="65" y="20" width="50" height="30" as="geometry" />
        </mxCell>
        <mxCell id="j_tpUfQhMSZQ1jyRV7th-5" value="system" style="text;html=1;align=center;verticalAlign=middle;resizable=0;points=[];autosize=1;strokeColor=none;fillColor=none;" vertex="1" parent="j_tpUfQhMSZQ1jyRV7th-2">
          <mxGeometry x="260" y="20" width="60" height="30" as="geometry" />
        </mxCell>
        <mxCell id="j_tpUfQhMSZQ1jyRV7th-7" style="edgeStyle=orthogonalEdgeStyle;rounded=0;orthogonalLoop=1;jettySize=auto;html=1;" edge="1" parent="j_tpUfQhMSZQ1jyRV7th-2" source="j_tpUfQhMSZQ1jyRV7th-6">
          <mxGeometry relative="1" as="geometry">
            <mxPoint x="290" y="100" as="targetPoint" />
          </mxGeometry>
        </mxCell>
        <mxCell id="j_tpUfQhMSZQ1jyRV7th-12" value="" style="edgeStyle=orthogonalEdgeStyle;rounded=0;orthogonalLoop=1;jettySize=auto;html=1;" edge="1" parent="j_tpUfQhMSZQ1jyRV7th-2" source="j_tpUfQhMSZQ1jyRV7th-6" target="j_tpUfQhMSZQ1jyRV7th-11">
          <mxGeometry relative="1" as="geometry" />
        </mxCell>
        <mxCell id="j_tpUfQhMSZQ1jyRV7th-6" value="register" style="rounded=1;whiteSpace=wrap;html=1;" vertex="1" parent="j_tpUfQhMSZQ1jyRV7th-2">
          <mxGeometry x="60" y="60" width="60" height="30" as="geometry" />
        </mxCell>
        <mxCell id="j_tpUfQhMSZQ1jyRV7th-9" style="edgeStyle=orthogonalEdgeStyle;rounded=0;orthogonalLoop=1;jettySize=auto;html=1;entryX=1;entryY=0.75;entryDx=0;entryDy=0;" edge="1" parent="j_tpUfQhMSZQ1jyRV7th-2" source="j_tpUfQhMSZQ1jyRV7th-8" target="j_tpUfQhMSZQ1jyRV7th-6">
          <mxGeometry relative="1" as="geometry">
            <Array as="points">
              <mxPoint x="180" y="115" />
              <mxPoint x="180" y="83" />
            </Array>
          </mxGeometry>
        </mxCell>
        <mxCell id="j_tpUfQhMSZQ1jyRV7th-8" value="unique username" style="rounded=1;whiteSpace=wrap;html=1;" vertex="1" parent="j_tpUfQhMSZQ1jyRV7th-2">
          <mxGeometry x="250" y="100" width="70" height="30" as="geometry" />
        </mxCell>
        <mxCell id="j_tpUfQhMSZQ1jyRV7th-10" value="no" style="text;html=1;align=center;verticalAlign=middle;resizable=0;points=[];autosize=1;strokeColor=none;fillColor=none;" vertex="1" parent="j_tpUfQhMSZQ1jyRV7th-2">
          <mxGeometry x="200" y="90" width="40" height="30" as="geometry" />
        </mxCell>
        <mxCell id="j_tpUfQhMSZQ1jyRV7th-14" style="edgeStyle=orthogonalEdgeStyle;rounded=0;orthogonalLoop=1;jettySize=auto;html=1;entryX=0;entryY=0.25;entryDx=0;entryDy=0;" edge="1" parent="j_tpUfQhMSZQ1jyRV7th-2" source="j_tpUfQhMSZQ1jyRV7th-11" target="j_tpUfQhMSZQ1jyRV7th-13">
          <mxGeometry relative="1" as="geometry" />
        </mxCell>
        <mxCell id="j_tpUfQhMSZQ1jyRV7th-11" value="login" style="rounded=1;whiteSpace=wrap;html=1;" vertex="1" parent="j_tpUfQhMSZQ1jyRV7th-2">
          <mxGeometry x="60" y="120" width="60" height="25" as="geometry" />
        </mxCell>
        <mxCell id="j_tpUfQhMSZQ1jyRV7th-16" style="edgeStyle=orthogonalEdgeStyle;rounded=0;orthogonalLoop=1;jettySize=auto;html=1;entryX=1;entryY=0.5;entryDx=0;entryDy=0;" edge="1" parent="j_tpUfQhMSZQ1jyRV7th-2" source="j_tpUfQhMSZQ1jyRV7th-13" target="j_tpUfQhMSZQ1jyRV7th-15">
          <mxGeometry relative="1" as="geometry" />
        </mxCell>
        <mxCell id="j_tpUfQhMSZQ1jyRV7th-13" value="validate credentials" style="rounded=1;whiteSpace=wrap;html=1;" vertex="1" parent="j_tpUfQhMSZQ1jyRV7th-2">
          <mxGeometry x="250" y="150" width="80" height="40" as="geometry" />
        </mxCell>
        <mxCell id="j_tpUfQhMSZQ1jyRV7th-15" value="logged" style="rounded=1;whiteSpace=wrap;html=1;" vertex="1" parent="j_tpUfQhMSZQ1jyRV7th-2">
          <mxGeometry x="60" y="170" width="60" height="30" as="geometry" />
        </mxCell>
        <mxCell id="j_tpUfQhMSZQ1jyRV7th-17" value="" style="endArrow=classic;html=1;rounded=0;exitX=0;exitY=0.5;exitDx=0;exitDy=0;entryX=0;entryY=1;entryDx=0;entryDy=0;" edge="1" parent="j_tpUfQhMSZQ1jyRV7th-2" source="j_tpUfQhMSZQ1jyRV7th-11" target="j_tpUfQhMSZQ1jyRV7th-6">
          <mxGeometry width="50" height="50" relative="1" as="geometry">
            <mxPoint x="170" y="230" as="sourcePoint" />
            <mxPoint x="220" y="180" as="targetPoint" />
          </mxGeometry>
        </mxCell>
        <mxCell id="j_tpUfQhMSZQ1jyRV7th-26" style="edgeStyle=orthogonalEdgeStyle;rounded=0;orthogonalLoop=1;jettySize=auto;html=1;entryX=0.5;entryY=0;entryDx=0;entryDy=0;" edge="1" parent="j_tpUfQhMSZQ1jyRV7th-2" source="j_tpUfQhMSZQ1jyRV7th-19" target="j_tpUfQhMSZQ1jyRV7th-25">
          <mxGeometry relative="1" as="geometry" />
        </mxCell>
        <mxCell id="j_tpUfQhMSZQ1jyRV7th-19" value="schedule" style="rounded=1;whiteSpace=wrap;html=1;" vertex="1" parent="j_tpUfQhMSZQ1jyRV7th-2">
          <mxGeometry x="55" y="230" width="70" height="20" as="geometry" />
        </mxCell>
        <mxCell id="j_tpUfQhMSZQ1jyRV7th-21" value="" style="endArrow=classic;html=1;rounded=0;exitX=0;exitY=1;exitDx=0;exitDy=0;entryX=1;entryY=0;entryDx=0;entryDy=0;" edge="1" parent="j_tpUfQhMSZQ1jyRV7th-2" source="j_tpUfQhMSZQ1jyRV7th-8" target="j_tpUfQhMSZQ1jyRV7th-15">
          <mxGeometry width="50" height="50" relative="1" as="geometry">
            <mxPoint x="170" y="230" as="sourcePoint" />
            <mxPoint x="220" y="180" as="targetPoint" />
          </mxGeometry>
        </mxCell>
        <mxCell id="j_tpUfQhMSZQ1jyRV7th-28" style="edgeStyle=orthogonalEdgeStyle;rounded=0;orthogonalLoop=1;jettySize=auto;html=1;entryX=1;entryY=0.5;entryDx=0;entryDy=0;" edge="1" parent="j_tpUfQhMSZQ1jyRV7th-2" source="j_tpUfQhMSZQ1jyRV7th-25" target="j_tpUfQhMSZQ1jyRV7th-27">
          <mxGeometry relative="1" as="geometry">
            <Array as="points">
              <mxPoint x="170" y="275" />
              <mxPoint x="170" y="295" />
            </Array>
          </mxGeometry>
        </mxCell>
        <mxCell id="j_tpUfQhMSZQ1jyRV7th-25" value="call api" style="rounded=1;whiteSpace=wrap;html=1;" vertex="1" parent="j_tpUfQhMSZQ1jyRV7th-2">
          <mxGeometry x="250" y="260" width="85" height="30" as="geometry" />
        </mxCell>
        <mxCell id="j_tpUfQhMSZQ1jyRV7th-27" value="select match" style="rounded=1;whiteSpace=wrap;html=1;" vertex="1" parent="j_tpUfQhMSZQ1jyRV7th-2">
          <mxGeometry x="55" y="280" width="75" height="30" as="geometry" />
        </mxCell>
        <mxCell id="j_tpUfQhMSZQ1jyRV7th-33" style="edgeStyle=orthogonalEdgeStyle;rounded=0;orthogonalLoop=1;jettySize=auto;html=1;entryX=1;entryY=0.5;entryDx=0;entryDy=0;" edge="1" parent="j_tpUfQhMSZQ1jyRV7th-2" source="j_tpUfQhMSZQ1jyRV7th-29" target="j_tpUfQhMSZQ1jyRV7th-32">
          <mxGeometry relative="1" as="geometry">
            <Array as="points">
              <mxPoint x="210" y="360" />
              <mxPoint x="210" y="380" />
            </Array>
          </mxGeometry>
        </mxCell>
        <mxCell id="j_tpUfQhMSZQ1jyRV7th-29" value="ML model" style="rounded=1;whiteSpace=wrap;html=1;" vertex="1" parent="j_tpUfQhMSZQ1jyRV7th-2">
          <mxGeometry x="257.5" y="330" width="77.5" height="30" as="geometry" />
        </mxCell>
        <mxCell id="j_tpUfQhMSZQ1jyRV7th-31" style="edgeStyle=orthogonalEdgeStyle;rounded=0;orthogonalLoop=1;jettySize=auto;html=1;entryX=0;entryY=0.5;entryDx=0;entryDy=0;" edge="1" parent="j_tpUfQhMSZQ1jyRV7th-2" source="j_tpUfQhMSZQ1jyRV7th-30" target="j_tpUfQhMSZQ1jyRV7th-29">
          <mxGeometry relative="1" as="geometry" />
        </mxCell>
        <mxCell id="j_tpUfQhMSZQ1jyRV7th-30" value="prediction" style="rounded=1;whiteSpace=wrap;html=1;" vertex="1" parent="j_tpUfQhMSZQ1jyRV7th-2">
          <mxGeometry x="50" y="330" width="80" height="20" as="geometry" />
        </mxCell>
        <mxCell id="j_tpUfQhMSZQ1jyRV7th-32" value="player list" style="rounded=1;whiteSpace=wrap;html=1;" vertex="1" parent="j_tpUfQhMSZQ1jyRV7th-2">
          <mxGeometry x="57.5" y="370" width="70" height="20" as="geometry" />
        </mxCell>
        <mxCell id="j_tpUfQhMSZQ1jyRV7th-35" value="" style="endArrow=classic;html=1;rounded=0;exitX=0.5;exitY=1;exitDx=0;exitDy=0;entryX=0.5;entryY=0;entryDx=0;entryDy=0;" edge="1" parent="j_tpUfQhMSZQ1jyRV7th-2" source="j_tpUfQhMSZQ1jyRV7th-27" target="j_tpUfQhMSZQ1jyRV7th-30">
          <mxGeometry width="50" height="50" relative="1" as="geometry">
            <mxPoint x="170" y="360" as="sourcePoint" />
            <mxPoint x="220" y="310" as="targetPoint" />
          </mxGeometry>
        </mxCell>
        <mxCell id="j_tpUfQhMSZQ1jyRV7th-42" value="" style="edgeStyle=orthogonalEdgeStyle;rounded=0;orthogonalLoop=1;jettySize=auto;html=1;" edge="1" parent="j_tpUfQhMSZQ1jyRV7th-2" source="j_tpUfQhMSZQ1jyRV7th-37" target="j_tpUfQhMSZQ1jyRV7th-41">
          <mxGeometry relative="1" as="geometry">
            <Array as="points">
              <mxPoint x="280" y="470" />
            </Array>
          </mxGeometry>
        </mxCell>
        <mxCell id="j_tpUfQhMSZQ1jyRV7th-37" value="admin" style="rounded=1;whiteSpace=wrap;html=1;" vertex="1" parent="j_tpUfQhMSZQ1jyRV7th-2">
          <mxGeometry x="250" y="420" width="60" height="20" as="geometry" />
        </mxCell>
        <mxCell id="j_tpUfQhMSZQ1jyRV7th-39" style="edgeStyle=orthogonalEdgeStyle;rounded=0;orthogonalLoop=1;jettySize=auto;html=1;entryX=0;entryY=0.5;entryDx=0;entryDy=0;" edge="1" parent="j_tpUfQhMSZQ1jyRV7th-2" source="j_tpUfQhMSZQ1jyRV7th-38" target="j_tpUfQhMSZQ1jyRV7th-37">
          <mxGeometry relative="1" as="geometry" />
        </mxCell>
        <mxCell id="j_tpUfQhMSZQ1jyRV7th-38" value="asky query" style="rounded=1;whiteSpace=wrap;html=1;" vertex="1" parent="j_tpUfQhMSZQ1jyRV7th-2">
          <mxGeometry x="50" y="410" width="85" height="20" as="geometry" />
        </mxCell>
        <mxCell id="j_tpUfQhMSZQ1jyRV7th-40" value="" style="endArrow=classic;html=1;rounded=0;exitX=0.5;exitY=1;exitDx=0;exitDy=0;entryX=0.5;entryY=0;entryDx=0;entryDy=0;" edge="1" parent="j_tpUfQhMSZQ1jyRV7th-2" source="j_tpUfQhMSZQ1jyRV7th-32" target="j_tpUfQhMSZQ1jyRV7th-38">
          <mxGeometry width="50" height="50" relative="1" as="geometry">
            <mxPoint x="170" y="430" as="sourcePoint" />
            <mxPoint x="220" y="380" as="targetPoint" />
          </mxGeometry>
        </mxCell>
        <mxCell id="j_tpUfQhMSZQ1jyRV7th-45" value="" style="edgeStyle=orthogonalEdgeStyle;rounded=0;orthogonalLoop=1;jettySize=auto;html=1;" edge="1" parent="j_tpUfQhMSZQ1jyRV7th-2" source="j_tpUfQhMSZQ1jyRV7th-41" target="j_tpUfQhMSZQ1jyRV7th-44">
          <mxGeometry relative="1" as="geometry" />
        </mxCell>
        <mxCell id="j_tpUfQhMSZQ1jyRV7th-41" value="response" style="whiteSpace=wrap;html=1;rounded=1;" vertex="1" parent="j_tpUfQhMSZQ1jyRV7th-2">
          <mxGeometry x="55" y="460" width="80" height="20" as="geometry" />
        </mxCell>
        <mxCell id="j_tpUfQhMSZQ1jyRV7th-44" value="" style="ellipse;html=1;shape=endState;fillColor=#000000;strokeColor=#ff0000;" vertex="1" parent="j_tpUfQhMSZQ1jyRV7th-2">
          <mxGeometry x="77.5" y="520" width="30" height="30" as="geometry" />
        </mxCell>
        <mxCell id="j_tpUfQhMSZQ1jyRV7th-3" value="" style="endArrow=none;html=1;rounded=0;entryX=0.5;entryY=1;entryDx=0;entryDy=0;" edge="1" parent="1" target="j_tpUfQhMSZQ1jyRV7th-2">
          <mxGeometry width="50" height="50" relative="1" as="geometry">
            <mxPoint x="420" y="80" as="sourcePoint" />
            <mxPoint x="450" y="250" as="targetPoint" />
            <Array as="points">
              <mxPoint x="420" y="430" />
            </Array>
          </mxGeometry>
        </mxCell>
        <mxCell id="j_tpUfQhMSZQ1jyRV7th-18" value="" style="endArrow=classic;html=1;rounded=0;exitX=0.5;exitY=1;exitDx=0;exitDy=0;" edge="1" parent="1" source="j_tpUfQhMSZQ1jyRV7th-15">
          <mxGeometry width="50" height="50" relative="1" as="geometry">
            <mxPoint x="400" y="290" as="sourcePoint" />
            <mxPoint x="320" y="290" as="targetPoint" />
          </mxGeometry>
        </mxCell>
        <mxCell id="j_tpUfQhMSZQ1jyRV7th-22" value="yes" style="text;html=1;align=center;verticalAlign=middle;resizable=0;points=[];autosize=1;strokeColor=none;fillColor=none;" vertex="1" parent="1">
          <mxGeometry x="360" y="205" width="40" height="30" as="geometry" />
        </mxCell>
      </root>
    </mxGraphModel>
  </diagram>
</mxfile>
